<svg xmlns="http://www.w3.org/2000/svg" width="1920" height="1080" viewBox="0 0 1920 1080"><defs><filter id="s"><feDropShadow dx="0" dy="7" stdDeviation="10" flood-color="#203B62" flood-opacity=".1"/></filter><marker id="a" markerWidth="11" markerHeight="11" refX="9" refY="5.5" orient="auto"><path d="M0 0L11 5.5 0 11Z" fill="#7187AA"/></marker></defs><rect width="1920" height="1080" fill="#F7F5F1"/><text x="80" y="90" font-family="Microsoft YaHei,Noto Sans SC,sans-serif" font-size="24" font-weight="700" fill="#D06C38" letter-spacing="4">预案 C · 三角色泳道图</text><text x="80" y="160" font-family="Microsoft YaHei,Noto Sans SC,sans-serif" font-size="52" font-weight="800" fill="#27364F">数字人口播视频创作方法</text><text x="80" y="205" font-family="Microsoft YaHei,Noto Sans SC,sans-serif" font-size="21" fill="#6C7788">明确用户、AI 中台与视频生成服务分别负责什么</text>
<g font-family="Microsoft YaHei,Noto Sans SC,sans-serif"><rect x="70" y="270" width="1780" height="200" rx="24" fill="#E7F0FF"/><rect x="70" y="490" width="1780" height="200" rx="24" fill="#FFF1D8"/><rect x="70" y="710" width="1780" height="200" rx="24" fill="#E6F3EA"/><text x="110" y="330" font-size="24" font-weight="800" fill="#2E67A2">用户</text><text x="110" y="550" font-size="24" font-weight="800" fill="#A46A16">AI 中台</text><text x="110" y="770" font-size="24" font-weight="800" fill="#2E7850">生成服务</text><line x1="260" y1="270" x2="260" y2="910" stroke="#C9CEC9" stroke-width="2"/>
<g filter="url(#s)"><rect x="315" y="325" width="260" height="95" rx="20" fill="white"/><text x="445" y="363" text-anchor="middle" font-size="21" font-weight="700" fill="#27364F">提出选题需求</text><text x="445" y="395" text-anchor="middle" font-size="16" fill="#6C7788">或提交参考视频链接</text><path d="M445 420V530" stroke="#7187AA" stroke-width="4" marker-end="url(#a)"/>
<rect x="315" y="545" width="260" height="95" rx="20" fill="#FFE3A9"/><text x="445" y="583" text-anchor="middle" font-size="21" font-weight="700" fill="#6D4A0B">生成选题/提取文案</text><text x="445" y="615" text-anchor="middle" font-size="16" fill="#82662C">辅助改写口播内容</text><path d="M575 592H675" stroke="#7187AA" stroke-width="4" marker-end="url(#a)"/>
<rect x="690" y="325" width="280" height="95" rx="20" fill="white"/><text x="830" y="363" text-anchor="middle" font-size="21" font-weight="700" fill="#27364F">选择选题并确认文案</text><text x="830" y="395" text-anchor="middle" font-size="16" fill="#6C7788">准备形象图与参考音色</text><path d="M830 420V530" stroke="#7187AA" stroke-width="4" marker-end="url(#a)"/>
<rect x="690" y="545" width="280" height="95" rx="20" fill="#FFE3A9"/><text x="830" y="583" text-anchor="middle" font-size="21" font-weight="700" fill="#6D4A0B">自动拆段生成分镜</text><text x="830" y="615" text-anchor="middle" font-size="16" fill="#82662C">估算时长并编写提示词</text><path d="M970 592H1070" stroke="#7187AA" stroke-width="4" marker-end="url(#a)"/>
<rect x="1085" y="325" width="280" height="95" rx="20" fill="white"/><text x="1225" y="363" text-anchor="middle" font-size="21" font-weight="700" fill="#27364F">优化分镜提示词</text><text x="1225" y="395" text-anchor="middle" font-size="16" fill="#6C7788">确认人物、动作、场景和镜头</text><path d="M1225 420V750" stroke="#7187AA" stroke-width="4" marker-end="url(#a)"/>
<rect x="1085" y="765" width="280" height="95" rx="20" fill="#CDEAD7"/><text x="1225" y="803" text-anchor="middle" font-size="21" font-weight="700" fill="#285F40">并发生成视频片段</text><text x="1225" y="835" text-anchor="middle" font-size="16" fill="#4F755E">失败片段支持单独重试</text><path d="M1365 812H1465" stroke="#7187AA" stroke-width="4" marker-end="url(#a)"/>
<rect x="1480" y="545" width="290" height="95" rx="20" fill="#FFE3A9"/><text x="1625" y="583" text-anchor="middle" font-size="21" font-weight="700" fill="#6D4A0B">合成完整视频</text><text x="1625" y="615" text-anchor="middle" font-size="16" fill="#82662C">保存到历史记录</text><path d="M1625 545V435" stroke="#7187AA" stroke-width="4" marker-end="url(#a)"/>
<rect x="1480" y="325" width="290" height="95" rx="20" fill="#1F7552"/><text x="1625" y="363" text-anchor="middle" font-size="21" font-weight="700" fill="white">预览并下载成品</text><text x="1625" y="395" text-anchor="middle" font-size="16" fill="#D9F0E3">下载视频、封面或继续分发</text></g></g></svg>