<svg xmlns="http://www.w3.org/2000/svg" width="1920" height="1080" viewBox="0 0 1920 1080"><defs><filter id="shadow"><feDropShadow dx="0" dy="7" stdDeviation="10" flood-color="#203B62" flood-opacity=".1"/></filter><marker id="arrow" markerWidth="11" markerHeight="11" refX="9" refY="5.5" orient="auto"><path d="M0 0L11 5.5 0 11Z" fill="#7187AA"/></marker></defs><rect width="1920" height="1080" fill="#F7F5F1"/><text x="80" y="85" font-family="Microsoft YaHei,Noto Sans SC,sans-serif" font-size="23" font-weight="700" fill="#D06C38" letter-spacing="4">招财猫 AI 中台 · 人机协作工作流</text><text x="80" y="155" font-family="Microsoft YaHei,Noto Sans SC,sans-serif" font-size="52" font-weight="800" fill="#27364F">GEO 内容增长</text><text x="80" y="200" font-family="Microsoft YaHei,Noto Sans SC,sans-serif" font-size="21" fill="#6C7788">企业提供真实知识，AI 规划与创作，人工负责事实核验和最终发布</text><g font-family="Microsoft YaHei,Noto Sans SC,sans-serif"><rect x="70" y="260" width="1780" height="205" rx="24" fill="#E7F0FF"/><rect x="70" y="485" width="1780" height="205" rx="24" fill="#FFF1D8"/><rect x="70" y="710" width="1780" height="205" rx="24" fill="#E6F3EA"/><text x="105" y="320" font-size="24" font-weight="800" fill="#2E67A2">企业与运营人员</text><text x="105" y="545" font-size="24" font-weight="800" fill="#A46A16">AI 中台</text><text x="105" y="770" font-size="24" font-weight="800" fill="#2E7850">人工确认与输出</text><line x1="275" y1="260" x2="275" y2="915" stroke="#C9CEC9" stroke-width="2"/><g filter="url(#shadow)">
<rect x="325" y="315" width="270" height="100" rx="20" fill="white"/><text x="460" y="354" text-anchor="middle" font-size="21" font-weight="700" fill="#27364F">完善企业实体信息</text><text x="460" y="387" text-anchor="middle" font-size="16" fill="#6C7788">上传介绍、产品、案例和 FAQ</text><path d="M460 415V530" stroke="#7187AA" stroke-width="4" marker-end="url(#arrow)"/>
<rect x="325" y="545" width="270" height="100" rx="20" fill="#FFE3A9"/><text x="460" y="584" text-anchor="middle" font-size="21" font-weight="700" fill="#6D4A0B">生成企业 GEO Skill</text><text x="460" y="617" text-anchor="middle" font-size="16" fill="#82662C">整理企业知识与表达规范</text><path d="M595 595H685" stroke="#7187AA" stroke-width="4" marker-end="url(#arrow)"/>
<rect x="700" y="765" width="280" height="100" rx="20" fill="white"/><text x="840" y="804" text-anchor="middle" font-size="21" font-weight="700" fill="#285F40">核对知识库事实</text><text x="840" y="837" text-anchor="middle" font-size="16" fill="#4F755E">修正并设为默认 Skill</text><path d="M840 765V650" stroke="#7187AA" stroke-width="4" marker-end="url(#arrow)"/>
<rect x="700" y="545" width="280" height="100" rx="20" fill="#FFE3A9"/><text x="840" y="584" text-anchor="middle" font-size="21" font-weight="700" fill="#6D4A0B">生成两周内容矩阵</text><text x="840" y="617" text-anchor="middle" font-size="16" fill="#82662C">规划平台、主题和日期</text><path d="M980 595H1070" stroke="#7187AA" stroke-width="4" marker-end="url(#arrow)"/>
<rect x="1085" y="315" width="280" height="100" rx="20" fill="white"/><text x="1225" y="354" text-anchor="middle" font-size="21" font-weight="700" fill="#27364F">筛选高价值选题</text><text x="1225" y="387" text-anchor="middle" font-size="16" fill="#6C7788">删除重复并调整内容方向</text><path d="M1225 415V530" stroke="#7187AA" stroke-width="4" marker-end="url(#arrow)"/>
<rect x="1085" y="545" width="280" height="100" rx="20" fill="#FFE3A9"/><text x="1225" y="584" text-anchor="middle" font-size="21" font-weight="700" fill="#6D4A0B">创作并执行 GEO 评分</text><text x="1225" y="617" text-anchor="middle" font-size="16" fill="#82662C">语义、对话、证据、FAQ</text><path d="M1365 595H1460" stroke="#7187AA" stroke-width="4" marker-end="url(#arrow)"/>
<rect x="1475" y="765" width="290" height="100" rx="20" fill="#1F7552"/><text x="1620" y="804" text-anchor="middle" font-size="21" font-weight="700" fill="white">核验、优化并导出</text><text x="1620" y="837" text-anchor="middle" font-size="16" fill="#D9F0E3">导出 Markdown 后人工发布</text><path d="M1620 765V650" stroke="#7187AA" stroke-width="4" marker-end="url(#arrow)"/>
<rect x="1475" y="545" width="290" height="100" rx="20" fill="#FFE3A9"/><text x="1620" y="584" text-anchor="middle" font-size="21" font-weight="700" fill="#6D4A0B">根据建议优化文章</text><text x="1620" y="617" text-anchor="middle" font-size="16" fill="#82662C">补充事实、案例和结构化问答</text></g></g></svg>