<svg xmlns="http://www.w3.org/2000/svg" width="1200" height="1576" viewBox="0 0 1200 1576"><defs><linearGradient id="bg" x1="0" y1="0" x2="1" y2="1"><stop stop-color="#F5F9FF"/><stop offset="1" stop-color="#E8F1FF"/></linearGradient><filter id="shadow"><feDropShadow dx="0" dy="10" stdDeviation="14" flood-color="#1D4ED8" flood-opacity=".12"/></filter><marker id="arrow-16geoarticlesvg" markerWidth="12" markerHeight="12" refX="10" refY="6" orient="auto"><path d="M0,0 L12,6 L0,12 Z" fill="#6B8AC7"/></marker></defs><rect width="1200" height="1576" fill="url(#bg)"/><circle cx="1100" cy="100" r="170" fill="#2563EB" opacity=".05"/><circle cx="80" cy="1496" r="220" fill="#0EA5E9" opacity=".06"/><text x="100" y="92" font-family="Microsoft YaHei,Noto Sans SC,sans-serif" font-size="24" font-weight="700" fill="#2563EB" letter-spacing="3">AI 中台 · 使用流程</text><text x="100" y="160" font-family="Microsoft YaHei,Noto Sans SC,sans-serif" font-size="50" font-weight="800" fill="#102A56">GEO 深度文章创作</text><text x="100" y="205" font-family="Microsoft YaHei,Noto Sans SC,sans-serif" font-size="21" fill="#587099">从选题、起草到评分优化和导出</text><g font-family="Microsoft YaHei,Noto Sans SC,sans-serif" filter="url(#shadow)"><rect x="365" y="285" width="470" height="100" rx="50" fill="#1D4ED8"/><text x="600" y="346" text-anchor="middle" font-size="28" font-weight="700" fill="white">选择文章选题</text><path d="M600 393V447" stroke="#6B8AC7" stroke-width="5" marker-end="url(#arrow-16geoarticlesvg)"/>
<rect x="270" y="461" width="660" height="120" rx="28" fill="white" stroke="#C9D8F2" stroke-width="2"/><circle cx="330" cy="521" r="30" fill="#E8F1FF"/><text x="330" y="531" text-anchor="middle" font-size="24" font-weight="700" fill="#2563EB">1</text><text x="390" y="513" font-size="26" font-weight="700" fill="#17305C">选择平台与知识库</text><text x="390" y="548" font-size="18" fill="#6980A5">确定发布场景和企业信息来源</text><path d="M600 589V623" stroke="#6B8AC7" stroke-width="5" marker-end="url(#arrow-16geoarticlesvg)"/>
<rect x="270" y="637" width="660" height="120" rx="28" fill="#FFF7E8" stroke="#F4C96B" stroke-width="2"/><circle cx="330" cy="697" r="30" fill="#FFE9B8"/><text x="330" y="707" text-anchor="middle" font-size="24" font-weight="700" fill="#B66A00">2</text><text x="390" y="689" font-size="26" font-weight="700" fill="#6B4400">AI 生成文章初稿</text><text x="390" y="724" font-size="18" fill="#9A6A20">形成标题、正文和基础结构</text><path d="M600 765V799" stroke="#6B8AC7" stroke-width="5" marker-end="url(#arrow-16geoarticlesvg)"/>
<rect x="270" y="813" width="660" height="120" rx="28" fill="#FFF7E8" stroke="#F4C96B" stroke-width="2"/><circle cx="330" cy="873" r="30" fill="#FFE9B8"/><text x="330" y="883" text-anchor="middle" font-size="24" font-weight="700" fill="#B66A00">3</text><text x="390" y="865" font-size="26" font-weight="700" fill="#6B4400">执行 GEO 评分</text><text x="390" y="900" font-size="18" fill="#9A6A20">检查语义、语气、证据和 FAQ</text><path d="M600 941V975" stroke="#6B8AC7" stroke-width="5" marker-end="url(#arrow-16geoarticlesvg)"/>
<polygon points="600,984 830,1055 600,1126 370,1055" fill="white" stroke="#78A0E4" stroke-width="3"/><text x="600" y="1046" text-anchor="middle" font-size="25" font-weight="700" fill="#17305C">评分是否达到要求？</text><text x="600" y="1078" text-anchor="middle" font-size="17" fill="#6980A5">结合业务标准判断是否继续优化</text><path d="M600 1134V1151" stroke="#6B8AC7" stroke-width="5" marker-end="url(#arrow-16geoarticlesvg)"/>
<rect x="270" y="1165" width="660" height="120" rx="28" fill="white" stroke="#C9D8F2" stroke-width="2"/><circle cx="330" cy="1225" r="30" fill="#E8F1FF"/><text x="330" y="1235" text-anchor="middle" font-size="24" font-weight="700" fill="#2563EB">5</text><text x="390" y="1217" font-size="26" font-weight="700" fill="#17305C">根据建议修改正文</text><text x="390" y="1252" font-size="18" fill="#6980A5">补充事实、案例、结构和常见问题</text><path d="M600 1293V1327" stroke="#6B8AC7" stroke-width="5" marker-end="url(#arrow-16geoarticlesvg)"/>
<rect x="365" y="1341" width="470" height="100" rx="50" fill="#169B68"/><text x="600" y="1402" text-anchor="middle" font-size="28" font-weight="700" fill="white">检查并导出文章</text><rect x="835" y="1160" width="305" height="78" rx="18" fill="#FFF0F0" stroke="#E77878" stroke-width="2"/><text x="987" y="1192" text-anchor="middle" font-size="17" font-weight="700" fill="#C43F3F">异常处理</text><text x="987" y="1218" text-anchor="middle" font-size="16" fill="#B75252">未达标：优化正文后重新评分</text></g><text x="100" y="1528" font-family="Microsoft YaHei,Noto Sans SC,sans-serif" font-size="16" fill="#7890B3">蓝色 = 用户操作　橙色 = AI 处理　绿色 = 最终结果　红色 = 异常处理</text></svg>