<svg xmlns="http://www.w3.org/2000/svg" width="1200" height="1400" viewBox="0 0 1200 1400"><defs><linearGradient id="bg" x1="0" y1="0" x2="1" y2="1"><stop stop-color="#F5F9FF"/><stop offset="1" stop-color="#E8F1FF"/></linearGradient><filter id="shadow"><feDropShadow dx="0" dy="10" stdDeviation="14" flood-color="#1D4ED8" flood-opacity=".12"/></filter><marker id="arrow-22helpcentersvg" markerWidth="12" markerHeight="12" refX="10" refY="6" orient="auto"><path d="M0,0 L12,6 L0,12 Z" fill="#6B8AC7"/></marker></defs><rect width="1200" height="1400" fill="url(#bg)"/><circle cx="1100" cy="100" r="170" fill="#2563EB" opacity=".05"/><circle cx="80" cy="1320" r="220" fill="#0EA5E9" opacity=".06"/><text x="100" y="92" font-family="Microsoft YaHei,Noto Sans SC,sans-serif" font-size="24" font-weight="700" fill="#2563EB" letter-spacing="3">AI 中台 · 使用流程</text><text x="100" y="160" font-family="Microsoft YaHei,Noto Sans SC,sans-serif" font-size="50" font-weight="800" fill="#102A56">帮助中心</text><text x="100" y="205" font-family="Microsoft YaHei,Noto Sans SC,sans-serif" font-size="21" fill="#587099">通过学习路径和常见问题快速解决疑问</text><g font-family="Microsoft YaHei,Noto Sans SC,sans-serif" filter="url(#shadow)"><rect x="365" y="285" width="470" height="100" rx="50" fill="#1D4ED8"/><text x="600" y="346" text-anchor="middle" font-size="28" font-weight="700" fill="white">进入帮助中心</text><path d="M600 393V447" stroke="#6B8AC7" stroke-width="5" marker-end="url(#arrow-22helpcentersvg)"/>
<polygon points="600,456 830,527 600,598 370,527" fill="white" stroke="#78A0E4" stroke-width="3"/><text x="600" y="518" text-anchor="middle" font-size="25" font-weight="700" fill="#17305C">第一次使用？</text><text x="600" y="550" text-anchor="middle" font-size="17" fill="#6980A5">新用户优先查看学习路径</text><path d="M600 606V623" stroke="#6B8AC7" stroke-width="5" marker-end="url(#arrow-22helpcentersvg)"/>
<rect x="270" y="637" width="660" height="120" rx="28" fill="white" stroke="#C9D8F2" stroke-width="2"/><circle cx="330" cy="697" r="30" fill="#E8F1FF"/><text x="330" y="707" text-anchor="middle" font-size="24" font-weight="700" fill="#2563EB">2</text><text x="390" y="689" font-size="26" font-weight="700" fill="#17305C">查看模块目录或术语表</text><text x="390" y="724" font-size="18" fill="#6980A5">寻找功能入口或概念解释</text><path d="M600 765V799" stroke="#6B8AC7" stroke-width="5" marker-end="url(#arrow-22helpcentersvg)"/>
<rect x="270" y="813" width="660" height="120" rx="28" fill="white" stroke="#C9D8F2" stroke-width="2"/><circle cx="330" cy="873" r="30" fill="#E8F1FF"/><text x="330" y="883" text-anchor="middle" font-size="24" font-weight="700" fill="#2563EB">3</text><text x="390" y="865" font-size="26" font-weight="700" fill="#17305C">搜索常见问题</text><text x="390" y="900" font-size="18" fill="#6980A5">根据现象查看对应解决方法</text><path d="M600 941V975" stroke="#6B8AC7" stroke-width="5" marker-end="url(#arrow-22helpcentersvg)"/>
<polygon points="600,984 830,1055 600,1126 370,1055" fill="white" stroke="#78A0E4" stroke-width="3"/><text x="600" y="1046" text-anchor="middle" font-size="25" font-weight="700" fill="#17305C">问题是否解决？</text><text x="600" y="1078" text-anchor="middle" font-size="17" fill="#6980A5">确认已经能够继续当前操作</text><path d="M600 1134V1151" stroke="#6B8AC7" stroke-width="5" marker-end="url(#arrow-22helpcentersvg)"/>
<rect x="365" y="1165" width="470" height="100" rx="50" fill="#169B68"/><text x="600" y="1226" text-anchor="middle" font-size="28" font-weight="700" fill="white">返回功能继续使用</text><rect x="835" y="984" width="305" height="78" rx="18" fill="#FFF0F0" stroke="#E77878" stroke-width="2"/><text x="987" y="1016" text-anchor="middle" font-size="17" font-weight="700" fill="#C43F3F">异常处理</text><text x="987" y="1042" text-anchor="middle" font-size="16" fill="#B75252">未解决：记录提示并联系支持</text></g><text x="100" y="1352" font-family="Microsoft YaHei,Noto Sans SC,sans-serif" font-size="16" fill="#7890B3">蓝色 = 用户操作　橙色 = AI 处理　绿色 = 最终结果　红色 = 异常处理</text></svg>