<svg xmlns="http://www.w3.org/2000/svg" width="1200" height="1576" viewBox="0 0 1200 1576"><defs><linearGradient id="bg" x1="0" y1="0" x2="1" y2="1"><stop stop-color="#F5F9FF"/><stop offset="1" stop-color="#E8F1FF"/></linearGradient><filter id="shadow"><feDropShadow dx="0" dy="10" stdDeviation="14" flood-color="#1D4ED8" flood-opacity=".12"/></filter><marker id="arrow-23adminsvg" markerWidth="12" markerHeight="12" refX="10" refY="6" orient="auto"><path d="M0,0 L12,6 L0,12 Z" fill="#6B8AC7"/></marker></defs><rect width="1200" height="1576" fill="url(#bg)"/><circle cx="1100" cy="100" r="170" fill="#2563EB" opacity=".05"/><circle cx="80" cy="1496" r="220" fill="#0EA5E9" opacity=".06"/><text x="100" y="92" font-family="Microsoft YaHei,Noto Sans SC,sans-serif" font-size="24" font-weight="700" fill="#2563EB" letter-spacing="3">AI 中台 · 使用流程</text><text x="100" y="160" font-family="Microsoft YaHei,Noto Sans SC,sans-serif" font-size="50" font-weight="800" fill="#102A56">管理员后台</text><text x="100" y="205" font-family="Microsoft YaHei,Noto Sans SC,sans-serif" font-size="21" fill="#587099">安全管理兑换码、用户和积分数据</text><g font-family="Microsoft YaHei,Noto Sans SC,sans-serif" filter="url(#shadow)"><rect x="365" y="285" width="470" height="100" rx="50" fill="#1D4ED8"/><text x="600" y="346" text-anchor="middle" font-size="28" font-weight="700" fill="white">完成管理员验证</text><path d="M600 393V447" stroke="#6B8AC7" stroke-width="5" marker-end="url(#arrow-23adminsvg)"/>
<rect x="270" y="461" width="660" height="120" rx="28" fill="white" stroke="#C9D8F2" stroke-width="2"/><circle cx="330" cy="521" r="30" fill="#E8F1FF"/><text x="330" y="531" text-anchor="middle" font-size="24" font-weight="700" fill="#2563EB">1</text><text x="390" y="513" font-size="26" font-weight="700" fill="#17305C">进入后台管理中心</text><text x="390" y="548" font-size="18" fill="#6980A5">选择兑换码或用户管理</text><path d="M600 589V623" stroke="#6B8AC7" stroke-width="5" marker-end="url(#arrow-23adminsvg)"/>
<rect x="270" y="637" width="660" height="120" rx="28" fill="white" stroke="#C9D8F2" stroke-width="2"/><circle cx="330" cy="697" r="30" fill="#E8F1FF"/><text x="330" y="707" text-anchor="middle" font-size="24" font-weight="700" fill="#2563EB">2</text><text x="390" y="689" font-size="26" font-weight="700" fill="#17305C">确认操作对象与范围</text><text x="390" y="724" font-size="18" fill="#6980A5">重要操作前核对用户和批次</text><path d="M600 765V799" stroke="#6B8AC7" stroke-width="5" marker-end="url(#arrow-23adminsvg)"/>
<rect x="270" y="813" width="660" height="120" rx="28" fill="white" stroke="#C9D8F2" stroke-width="2"/><circle cx="330" cy="873" r="30" fill="#E8F1FF"/><text x="330" y="883" text-anchor="middle" font-size="24" font-weight="700" fill="#2563EB">3</text><text x="390" y="865" font-size="26" font-weight="700" fill="#17305C">执行管理操作</text><text x="390" y="900" font-size="18" fill="#6980A5">生成兑换码、管理用户或调整积分</text><path d="M600 941V975" stroke="#6B8AC7" stroke-width="5" marker-end="url(#arrow-23adminsvg)"/>
<polygon points="600,984 830,1055 600,1126 370,1055" fill="white" stroke="#78A0E4" stroke-width="3"/><text x="600" y="1046" text-anchor="middle" font-size="25" font-weight="700" fill="#17305C">是否确认提交？</text><text x="600" y="1078" text-anchor="middle" font-size="17" fill="#6980A5">批量或重要操作需要再次确认</text><path d="M600 1134V1151" stroke="#6B8AC7" stroke-width="5" marker-end="url(#arrow-23adminsvg)"/>
<rect x="270" y="1165" width="660" height="120" rx="28" fill="white" stroke="#C9D8F2" stroke-width="2"/><circle cx="330" cy="1225" r="30" fill="#E8F1FF"/><text x="330" y="1235" text-anchor="middle" font-size="24" font-weight="700" fill="#2563EB">5</text><text x="390" y="1217" font-size="26" font-weight="700" fill="#17305C">检查操作结果</text><text x="390" y="1252" font-size="18" fill="#6980A5">核对状态、用户和积分流水</text><path d="M600 1293V1327" stroke="#6B8AC7" stroke-width="5" marker-end="url(#arrow-23adminsvg)"/>
<rect x="365" y="1341" width="470" height="100" rx="50" fill="#169B68"/><text x="600" y="1402" text-anchor="middle" font-size="28" font-weight="700" fill="white">安全退出后台</text><rect x="835" y="1160" width="305" height="78" rx="18" fill="#FFF0F0" stroke="#E77878" stroke-width="2"/><text x="987" y="1192" text-anchor="middle" font-size="17" font-weight="700" fill="#C43F3F">异常处理</text><text x="987" y="1218" text-anchor="middle" font-size="16" fill="#B75252">信息不符：返回重新核对</text></g><text x="100" y="1528" font-family="Microsoft YaHei,Noto Sans SC,sans-serif" font-size="16" fill="#7890B3">蓝色 = 用户操作　橙色 = AI 处理　绿色 = 最终结果　红色 = 异常处理</text></svg>